# xmcd
#
# Track frame offsets:
#	150
#	16682
#	33757
#	49315
#	60352
#	73970
#	87487
#	99705
#	112452
#	125450
#	140377
#	150537
#	164857
#	177037
#	189705
#	204432
#	217602
#	236235
#	252062
#	264310
#	281300
#	297345
#
# Disc length: 4218 seconds
#
# Revision: 1
# Processed by: cddbd v1.5.1PL0 Copyright (c) Steve Scherf et al.
# Submitted via: CDex 1.50Beta5
#
DISCID=42107816
DTITLE=Various Artist - 幻の名盤お色気キューティ・ポップ解放歌集*ポリグラム編〜夜のメカニズム
DYEAR=1996
DGENRE=Pop
TTITLE0=蝶の踊り
TTITLE1=ゆうべの貴方
TTITLE2=太陽の女
TTITLE3=真心で愛して
TTITLE4=プルプル
TTITLE5=一人だけの涙
TTITLE6=白い雲ポッカリ
TTITLE7=ふたつの影
TTITLE8=ゴーゴー娘
TTITLE9=恋は片道切符
TTITLE10=チャカブン
TTITLE11=涙でかざりたい
TTITLE12=恋のロリロリ
TTITLE13=ランブリン・マン
TTITLE14=夜の味
TTITLE15=夜のメカニズム
TTITLE16=いつまでも、いつまでも
TTITLE17=悪いくせ
TTITLE18=私のキライなもの
TTITLE19=電話
TTITLE20=切ない恋のブルース
TTITLE21=赤い夕日
EXTD=
EXTT0=
EXTT1=
EXTT2=
EXTT3=
EXTT4=
EXTT5=
EXTT6=
EXTT7=
EXTT8=
EXTT9=
EXTT10=
EXTT11=
EXTT12=
EXTT13=
EXTT14=
EXTT15=
EXTT16=
EXTT17=
EXTT18=
EXTT19=
EXTT20=
EXTT21=
PLAYORDER=
